<svg xmlns="http://www.w3.org/2000/svg" xmlns:xlink="http://www.w3.org/1999/xlink" viewBox="0 0 512 512" xmlns:v="https://vecta.io/nano"><defs><linearGradient id="A" x1="403.19" y1="32.72" x2="477.19" y2="90.72" gradientUnits="userSpaceOnUse"><stop offset="0" stop-color="#fff"/><stop offset=".09" stop-color="#ffded5"/><stop offset=".23" stop-color="#ffb39d"/><stop offset=".37" stop-color="#ff8e6d"/><stop offset=".5" stop-color="#ff6f46"/><stop offset=".63" stop-color="#ff5827"/><stop offset=".76" stop-color="#ff4712"/><stop offset=".89" stop-color="#ff3c04"/><stop offset="1" stop-color="#ff3900"/></linearGradient><linearGradient id="B" x1="390.32" y1="39.12" x2="440.32" y2="98.12" xlink:href="#A"/><linearGradient id="C" x1="374.87" y1="78.36" x2="414.66" y2="124.49" gradientUnits="userSpaceOnUse"><stop offset="0" stop-color="#95979e"/><stop offset=".44" stop-color="#fff"/><stop offset=".55" stop-color="#dadbde"/><stop offset=".67" stop-color="#bcbdc2"/><stop offset=".78" stop-color="#a6a8ae"/><stop offset=".9" stop-color="#999ba2"/><stop offset="1" stop-color="#95979e"/></linearGradient><linearGradient id="D" x1="173.09" y1="291.55" x2="213.09" y2="343.55" gradientUnits="userSpaceOnUse"><stop offset="0" stop-color="#ffdea2"/><stop offset=".51" stop-color="#fff"/><stop offset="1" stop-color="#ffdea2"/></linearGradient><path id="E" d="M32.51 175.29h66.91v65.79H32.51z"/><path id="F" d="M109.18 250.88h66.87v65.79h-66.87z"/><path id="G" d="M109.18 326.41h66.87v65.83h-66.87z"/><path id="H" d="M185.8 175.29h66.87v65.79H185.8z"/></defs><path d="M21.27 87.29h395.08v391.37H21.27z"/><g fill="#fff"><use xlink:href="#E"/><use xlink:href="#E" y="75.59"/><path d="M32.51 326.41h66.91v65.83H32.51z"/><use xlink:href="#E"/><use xlink:href="#E" y="75.59"/><path d="M32.51 326.41h66.91v65.83H32.51zm76.67-229.14h66.87v68.27h-66.87z"/><use xlink:href="#F"/><use xlink:href="#G"/><use xlink:href="#G" y="75.59"/><use xlink:href="#F"/><use xlink:href="#G"/><use xlink:href="#G" y="75.59"/><path d="M185.8 97.27h66.87v68.27H185.8z"/><use xlink:href="#H"/><use xlink:href="#H" y="75.59"/><path d="M185.8 402h66.87v65.83H185.8z"/><use xlink:href="#H"/><use xlink:href="#H" y="75.59"/><path d="M185.8 402h66.87v65.83H185.8zm76.62-304.73h66.87v68.27h-66.87z"/><use xlink:href="#F" x="153.24" y="-75.59"/><use xlink:href="#F" x="153.24"/><use xlink:href="#G" x="153.24"/><use xlink:href="#G" x="153.24" y="75.59"/><use xlink:href="#F" x="153.24" y="-75.59"/><use xlink:href="#F" x="153.24"/><use xlink:href="#G" x="153.24"/><use xlink:href="#G" x="153.24" y="75.59"/><path d="M339.05 97.27h66.87v68.27h-66.87z"/><use xlink:href="#F" x="229.87" y="-75.59"/><use xlink:href="#G" x="229.87"/><use xlink:href="#F" x="229.87" y="-75.59"/><use xlink:href="#G" x="229.87"/></g><g fill="#303068"><path d="M405.06,25.52a3.15,3.15,0,0,1,4.47-.09,3.21,3.21,0,0,1,.09,4.52L184,262.48,156,360l106.19-27.59L493.51,108.92A3.2,3.2,0,0,1,498,109a3.16,3.16,0,0,1-.09,4.47l-232,224a3.1,3.1,0,0,1-1.4.77l-112.2,29.17a3.2,3.2,0,0,1-4.07-3.93L178.13,260h0a3.25,3.25,0,0,1,.76-1.35Z"/><path d="M408.17 23.76c8.13-3.88 20.32-2.12 33.37 3.84 12.6 5.73 26.23 15.44 37.93 27.72 8.4 8.85 14.72 17.88 18.65 26.1 3.11 6.55 4.74 12.64 4.87 18 .14 5.78-1.53 10.57-5.14 14a17.75 17.75 0 0 1-4.34 3c-8.13 3.88-20.32 2.12-33.37-3.84-12.59-5.78-26.23-15.44-37.92-27.72-8.4-8.85-14.72-17.88-18.65-26.15-3.07-6.5-4.74-12.64-4.88-18-.13-5.73 1.54-10.56 5.15-14a16.14 16.14 0 0 1 4.33-2.94zm30.75 9.62c-11.42-5.19-21.63-6.91-28-3.88a10.52 10.52 0 0 0-2.66 1.8c-2.21 2.12-3.25 5.33-3.16 9.3.09 4.38 1.53 9.62 4.29 15.36 3.66 7.67 9.57 16.11 17.47 24.47 11.15 11.69 24.07 20.9 35.94 26.32 11.43 5.19 21.63 6.91 28 3.84a9.58 9.58 0 0 0 2.67-1.81c2.21-2.12 3.25-5.32 3.16-9.25-.09-4.38-1.54-9.62-4.29-15.35-3.66-7.68-9.58-16.12-17.48-24.48-11.15-11.7-24.06-20.9-35.94-26.32zm-58.79 23.43A3.26 3.26 0 0 1 382 52.7a3.15 3.15 0 0 1 4.1 1.86c.1.18 24.21 65 87.1 75.76a3.25 3.25 0 0 1 2.62 3.7 3.19 3.19 0 0 1-3.7 2.58c-66.46-11.38-91.88-79.61-92-79.79zm-34.45 32.24a3.23 3.23 0 0 1 2.13-4 3.16 3.16 0 0 1 4 2.08c0 .18 19.41 64.07 86.42 77.07a3.17 3.17 0 1 1-1.17 6.23c-70.8-13.73-91.26-81.23-91.35-81.41zM178.17 261.76a3.163 3.163 0 1 1 6.05-1.85c.05.18 17.79 59.87 80.15 72.19a3.2 3.2 0 0 1-1.22 6.28c-66.1-13.1-84.93-76.44-85-76.62zm-20.63 70.75a3.171 3.171 0 1 1 6.27-.95c0 .09 2.71 19.46 20.91 21.09a3.19 3.19 0 0 1 2.89 3.47 3.15 3.15 0 0 1-3.43 2.85c-23.26-2.08-26.64-26.37-26.64-26.46z"/></g><g fill-rule="evenodd"><path d="M426.82 80.43c11.15 11.69 24.07 20.9 35.94 26.32 11.43 5.19 21.63 6.91 28 3.84a9.58 9.58 0 0 0 2.67-1.81c2.21-2.12 3.25-5.32 3.16-9.25-.09-4.38-1.54-9.62-4.29-15.35-3.66-7.68-9.58-16.12-17.48-24.48-11.11-11.7-24.02-20.9-35.9-26.32-11.42-5.19-21.63-6.91-28-3.88a11.13 11.13 0 0 0-2.38 1.5l-1.09 1.13c-1.71 2.08-2.48 5-2.39 8.44.09 4.38 1.53 9.62 4.29 15.36 3.66 7.67 9.57 16.11 17.47 24.47z" fill="url(#A)"/><path d="M460.14,112.53c-12.59-5.78-26.23-15.44-37.92-27.72-8.4-8.85-14.72-17.88-18.65-26.15a46,46,0,0,1-4.88-17.51L386,54.29c.05.09.05.18.09.27s23.84,63.93,85.52,75.49l12.06-11.65c-6.87.09-15-2-23.53-5.87Z" fill="url(#B)"/><path d="M466.1,135.38c-54.86-12.65-79.87-64.25-84.93-76.13l-28.8,29.67c3.65,10.34,25,62.62,84.25,75Z" fill="url(#C)"/><path d="M251.05,335.26c-42.27-13.36-62.13-47.95-69.4-64.47L164,332.24c.63,3.34,4.47,18.6,20.27,20.36Z" fill="url(#D)"/><path d="M172.75,355.58a29.43,29.43,0,0,1-11.83-12.82L156,360Z"/><path d="M394,152.76,228.92,317.93a101.41,101.41,0,0,0,33.82,13.86L431.11,169.15A113,113,0,0,1,394,152.76Z" fill="#ff8f00"/><path d="M228.92,317.93,394,152.76a125.2,125.2,0,0,1-34.4-35.49L196.19,284.56a110.07,110.07,0,0,0,32.73,33.37Z" fill="#ffbf00"/><path d="M196.19,284.56,359.64,117.27A134.55,134.55,0,0,1,347.49,94L184.81,261.67a111.65,111.65,0,0,0,11.38,22.89Z" fill="#ffef00"/></g></svg>